<svg xmlns="http://www.w3.org/2000/svg" version="1.1" xmlns:xlink="http://www.w3.org/1999/xlink" xmlns:svgjs="http://svgjs.com/svgjs" width="100" height="100" viewBox="0 0 100 100"><g class="wrap" transform="matrix(-1,0,0,1,100,0)"><defs class="background">
			<g id="background">
<path fill="url(#background-gradient)" stroke="none" d=" M 97.45 2.65 Q 94.8 0 91.15 0 L 8.85 0 Q 5.2 0 2.65 2.65 0 5.2 0 8.85 L 0 91.15 Q 0 94.8 2.65 97.45 5.2 100 8.85 100 L 91.15 100 Q 94.8 100 97.45 97.45 100 94.8 100 91.15 L 100 8.85 Q 100 5.2 97.45 2.65 Z"></path>
</g><g id="middle-1">
<path fill="#000000" fill-opacity="0.10196078431372549" stroke="none" d=" M 97.45 2.65 Q 94.85 0 91.15 0 L 8.85 0 Q 4.95 0 2.65 2.55 L 97.15 97.6 Q 100 95.05 100 91.15 L 100 8.85 Q 100 5.2 97.45 2.65 Z"></path>
</g><mask id="mask">
<path fill="#FFFFFF" stroke="none" d=" M 97.45 2.65 Q 94.8 0 91.15 0 L 8.85 0 Q 5.2 0 2.65 2.65 0 5.2 0 8.85 L 0 91.15 Q 0 94.8 2.65 97.45 5.2 100 8.85 100 L 91.15 100 Q 94.8 100 97.45 97.45 100 94.8 100 91.15 L 100 8.85 Q 100 5.2 97.45 2.65 Z"></path>
</mask>
			
	<linearGradient id="background-gradient" x1="0" y1="0" y2="1" x2="0" gradientTransform="rotate(0 0.5 0.5)">
		<stop stop-color="#ac7ebd" offset="0%"></stop>
		<stop stop-color="#ac7ebd" offset="100%"></stop>
	</linearGradient>

			
			
			
			
		<linearGradient class="shapgradient" gradientTransform="rotate(0 0.5 0.5)" id="SvgjsLinearGradient1003"><stop stop-color="#ffffff" offset="0"></stop><stop stop-color="#ffffff" offset="1"></stop></linearGradient></defs><use xlink:href="#background" fill="url(#background-gradient)" class="background"></use><use xlink:href="#middle-1" class="background"></use><g class="geditable"><g mask="url(#mask)" fill="url(#SvgjsLinearGradient1003)" class="editable"><path d="M521.9003876264098 229.97621470408112V219.1512147040811C521.9003876264098 175.5392147040811 481.38038762640986 142.46021470408112 438.86138762640985 153.6052147040811C413.23238762640983 104.1052147040811 344.7713876264098 106.1552147040811 320.8793876264099 154.35221470408112C279.5993876264098 143.7912147040811 238.47438762640982 175.28021470408112 238.47438762640982 219.33521470408112V345.4652147040811C218.52138762640982 338.0382147040811 195.16638762640983 340.3972147040811 176.39138762640982 354.3362147040811C147.03638762640983 376.13221470408115 140.5973876264098 417.6692147040811 161.8413876264098 447.4892147040811L281.8103876264098 615.9042147040811A32 32 0 0 0 307.8723876264098 629.336214704081H530.7693876264098C545.6733876264097 629.336214704081 558.6043876264098 619.0472147040811 561.9513876264098 604.523214704081L592.1353876264099 473.56521470408114A203.637 203.637 0 0 0 597.3303876264099 427.89921470408115V296.3352147040811C597.3303876264099 255.71521470408112 561.8073876264098 224.3432147040811 521.9003876264098 229.97621470408112ZM549.3273876264099 427.8982147040811C549.3273876264099 439.6292147040811 547.9933876264099 451.3672147040811 545.3623876264098 462.78421470408114L518.0373876264098 581.3352147040811H316.1173876264098L200.92138762640982 419.6382147040811C186.4823876264098 399.36821470408114 215.94438762640982 376.8622147040811 230.31538762640983 397.0332147040811L257.44338762640984 435.1122147040811C266.43838762640985 447.7382147040811 286.4743876264098 441.3992147040811 286.4743876264098 425.8292147040811V219.33521470408112C286.4743876264098 193.69021470408111 323.0453876264098 194.52521470408112 323.0453876264098 220.0262147040811V373.3352147040811C323.0453876264098 382.1722147040811 330.20838762640983 389.3352147040811 339.0453876264098 389.3352147040811H345.9013876264098C354.7383876264098 389.3352147040811 361.9013876264098 382.1722147040811 361.9013876264098 373.3352147040811V184.33521470408112C361.9013876264098 158.6722147040811 398.47238762640984 159.52521470408112 398.47238762640984 185.0262147040811V373.3352147040811C398.47238762640984 382.1722147040811 405.63538762640985 389.3352147040811 414.47238762640984 389.3352147040811H421.32838762640984C430.1653876264098 389.3352147040811 437.32838762640984 382.1722147040811 437.32838762640984 373.3352147040811V218.46021470408112C437.32838762640984 192.7882147040811 473.8983876264098 193.65021470408112 473.8983876264098 219.1512147040811V373.3352147040811C473.8983876264098 382.1722147040811 481.0613876264098 389.3352147040811 489.8983876264098 389.3352147040811H496.75538762640986C505.59238762640985 389.3352147040811 512.7553876264099 382.1722147040811 512.7553876264099 373.3352147040811V297.0262147040811C512.7553876264099 270.78421470408114 549.3253876264098 271.3862147040811 549.3253876264098 296.3352147040811V427.8982147040811Z " transform="matrix(0.1339286809065799,0,0,0.1339286809065799,0.0003303799892781907,-0.00032707618938540876)"></path></g></g></g></svg>