<svg xmlns="http://www.w3.org/2000/svg" version="1.1" xmlns:xlink="http://www.w3.org/1999/xlink" xmlns:svgjs="http://svgjs.com/svgjs" width="100" height="100" viewBox="0 0 100 100"><g class="wrap" transform="matrix(-6.123233995736766e-17,-1,-1,6.123233995736766e-17,100,100)"><defs class="background">
			<g id="background">
<path fill="url(#background-gradient)" stroke="none" d=" M 97.45 2.65 Q 94.8 0 91.15 0 L 8.85 0 Q 5.2 0 2.65 2.65 0 5.2 0 8.85 L 0 91.15 Q 0 94.8 2.65 97.45 5.2 100 8.85 100 L 91.15 100 Q 94.8 100 97.45 97.45 100 94.8 100 91.15 L 100 8.85 Q 100 5.2 97.45 2.65 Z"></path>
</g><g id="middle-1">
<path fill="#000000" fill-opacity="0.10196078431372549" stroke="none" d=" M 97.45 2.65 Q 94.85 0 91.15 0 L 8.85 0 Q 4.95 0 2.65 2.55 L 97.15 97.6 Q 100 95.05 100 91.15 L 100 8.85 Q 100 5.2 97.45 2.65 Z"></path>
</g><mask id="mask">
<path fill="#FFFFFF" stroke="none" d=" M 97.45 2.65 Q 94.8 0 91.15 0 L 8.85 0 Q 5.2 0 2.65 2.65 0 5.2 0 8.85 L 0 91.15 Q 0 94.8 2.65 97.45 5.2 100 8.85 100 L 91.15 100 Q 94.8 100 97.45 97.45 100 94.8 100 91.15 L 100 8.85 Q 100 5.2 97.45 2.65 Z"></path>
</mask>
			
	<linearGradient id="background-gradient" x1="0" y1="0" y2="1" x2="0">
		<stop stop-color="#AC7EBD" offset="0%"></stop>
		<stop stop-color="#AC7EBD" offset="100%"></stop>
	</linearGradient>

			
			
			
			
		<linearGradient class="shapgradient" gradientTransform="rotate(0 0.5 0.5)" id="SvgjsLinearGradient1000"><stop stop-color="#ffffff" offset="0"></stop><stop stop-color="#ffffff" offset="1"></stop></linearGradient></defs><use xlink:href="#background" fill="url(#background-gradient)" class="background"></use><use xlink:href="#middle-1" class="background"></use><g class="geditable"><g mask="url(#mask)" fill="url(#SvgjsLinearGradient1000)" class="editable"><path d="M549.3333190917969 297.6633129882813V205.33331298828125C549.3333190917969 174.40331298828124 524.2633190917969 149.33331298828125 493.33331909179685 149.33331298828125H469.33331909179685C464.9333190917969 149.33331298828125 460.69331909179687 149.96331298828125 456.58331909179685 150.93331298828124C447.9233190917969 131.19331298828126 428.23331909179683 117.33331298828125 405.33331909179685 117.33331298828125H381.33331909179685C358.4333190917969 117.33331298828125 338.7433190917969 131.19331298828126 330.08331909179685 150.93331298828124C325.97331909179684 149.96331298828125 321.7333190917969 149.33331298828125 317.33331909179685 149.33331298828125H293.33331909179685C270.4333190917969 149.33331298828125 250.74331909179688 163.19331298828126 242.08331909179688 182.93331298828124C237.9733190917969 181.96331298828125 233.7333190917969 181.33331298828125 229.33331909179688 181.33331298828125H205.33331909179688C174.40331909179687 181.33331298828125 149.33331909179688 206.40331298828124 149.33331909179688 237.33331298828125V448.31331298828127C149.33331909179688 488.6033129882813 165.33331909179688 527.2533129882813 193.8233190917969 555.7433129882813L213.33331909179688 575.2633129882813V613.3333129882812C213.33331909179688 622.1733129882812 220.49331909179688 629.3333129882812 229.33331909179688 629.3333129882812H245.33331909179688C254.17331909179688 629.3333129882812 261.33331909179685 622.1733129882812 261.33331909179685 613.3333129882812V555.3933129882812L227.80331909179688 521.8533129882812C208.42331909179688 502.4933129882813 197.33331909179688 475.6733129882812 197.33331909179688 448.31331298828127V388.52331298828125C199.96331909179688 388.90331298828124 202.59331909179687 389.33331298828125 205.33331909179688 389.33331298828125H229.33331909179688C241.24331909179688 389.33331298828125 252.24331909179688 385.53331298828124 261.33331909179685 379.16331298828123C270.4233190917969 385.53331298828124 281.4233190917969 389.33331298828125 293.33331909179685 389.33331298828125H317.33331909179685C329.1133190917969 389.33331298828125 340.0233190917969 385.63331298828126 349.0533190917969 379.39331298828125C353.7733190917969 390.4833129882812 360.4933190917969 400.64331298828125 369.21331909179685 409.37331298828127C373.06331909179687 413.2333129882813 377.25331909179687 416.6033129882813 381.60331909179683 419.70331298828125C363.32331909179686 435.31331298828127 348.13331909179686 455.88331298828126 332.10331909179683 479.90331298828124C326.1633190917969 488.81331298828127 328.57331909179686 500.84331298828124 337.48331909179683 506.77331298828125L345.1733190917969 511.89331298828125C354.08331909179685 517.8333129882812 366.1133190917968 515.4233129882812 372.0433190917969 506.52331298828125C401.32331909179686 462.6133129882812 418.7833190917969 441.94331298828126 455.34331909179684 438.03331298828124C463.34331909179684 437.1733129882812 469.32331909179686 430.2333129882812 469.32331909179686 422.1833129882812V405.33331298828125C469.32331909179686 396.4933129882813 462.1633190917969 389.33331298828125 453.32331909179686 389.33331298828125H436.6433190917969C410.48331909179683 389.33331298828125 389.2833190917969 368.13331298828126 389.2833190917969 341.97331298828124V341.2333129882812C389.2833190917969 332.45331298828125 396.4033190917969 325.33331298828125 405.1833190917969 325.33331298828125H485.33331909179685C520.6833190917969 325.33331298828125 549.3333190917969 353.9833129882812 549.3333190917969 389.33331298828125V437.33331298828125C549.3333190917969 462.79331298828123 539.2233190917968 487.21331298828125 521.2133190917968 505.21331298828125L469.33331909179685 557.0933129882812V613.3333129882812C469.33331909179685 622.1733129882812 476.49331909179693 629.3333129882812 485.33331909179685 629.3333129882812H501.33331909179685C510.1733190917969 629.3333129882812 517.3333190917969 622.1733129882812 517.3333190917969 613.3333129882812V576.9833129882812L555.1633190917969 539.1533129882812A144 144 0 0 0 597.3333190917969 437.33331298828125V389.33331298828125C597.3333190917969 351.39331298828125 578.2733190917969 317.9333129882813 549.3333190917969 297.66331298828123ZM229.33331909179688 341.33331298828125H205.33331909179688C200.92331909179688 341.33331298828125 197.33331909179688 337.7433129882812 197.33331909179688 333.33331298828125V237.33331298828125C197.33331909179688 232.92331298828125 200.92331909179688 229.33331298828125 205.33331909179688 229.33331298828125H229.33331909179688C233.74331909179688 229.33331298828125 237.33331909179688 232.92331298828125 237.33331909179688 237.33331298828125V333.33331298828125C237.33331909179688 337.7433129882812 233.74331909179688 341.33331298828125 229.33331909179688 341.33331298828125ZM325.33331909179685 333.33331298828125C325.33331909179685 337.7433129882812 321.7433190917969 341.33331298828125 317.33331909179685 341.33331298828125H293.33331909179685C288.9233190917969 341.33331298828125 285.33331909179685 337.7433129882812 285.33331909179685 333.33331298828125V205.33331298828125C285.33331909179685 200.92331298828125 288.9233190917969 197.33331298828125 293.33331909179685 197.33331298828125H317.33331909179685C321.7433190917969 197.33331298828125 325.33331909179685 200.92331298828125 325.33331909179685 205.33331298828125V333.33331298828125ZM373.33331909179685 286.20331298828125V173.33331298828125C373.33331909179685 168.92331298828125 376.9233190917969 165.33331298828125 381.33331909179685 165.33331298828125H405.33331909179685C409.74331909179693 165.33331298828125 413.33331909179685 168.92331298828125 413.33331909179685 173.33331298828125V277.33331298828125H405.3033190917969C393.6033190917969 277.33331298828125 382.7733190917969 280.71331298828125 373.33331909179685 286.20331298828125ZM461.33331909179685 277.33331298828125V205.33331298828125C461.33331909179685 200.92331298828125 464.9233190917969 197.33331298828125 469.33331909179685 197.33331298828125H493.33331909179685C497.74331909179693 197.33331298828125 501.33331909179685 200.92331298828125 501.33331909179685 205.33331298828125V278.95331298828125C496.06331909179687 278.19331298828126 490.81331909179687 277.33331298828125 485.33331909179685 277.33331298828125H461.33331909179685Z " transform="matrix(0.13392857142857142,0,0,0.13392857142857142,0,0)"></path></g></g></g></svg>