<svg xmlns="http://www.w3.org/2000/svg" version="1.1" xmlns:xlink="http://www.w3.org/1999/xlink" xmlns:svgjs="http://svgjs.com/svgjs" width="100" height="100" viewBox="0 0 100 100"><g class="wrap" transform="matrix(-1,1.2246467991473532e-16,1.2246467991473532e-16,1,100,-7.105427357601002e-15)"><defs class="background">
			<g id="background">
<path fill="url(#background-gradient)" stroke="none" d=" M 97.45 2.65 Q 94.8 0 91.15 0 L 8.85 0 Q 5.2 0 2.65 2.65 0 5.2 0 8.85 L 0 91.15 Q 0 94.8 2.65 97.45 5.2 100 8.85 100 L 91.15 100 Q 94.8 100 97.45 97.45 100 94.8 100 91.15 L 100 8.85 Q 100 5.2 97.45 2.65 Z"></path>
</g><g id="middle-1">
<path fill="#000000" fill-opacity="0.10196078431372549" stroke="none" d=" M 97.45 2.65 Q 94.85 0 91.15 0 L 8.85 0 Q 4.95 0 2.65 2.55 L 97.15 97.6 Q 100 95.05 100 91.15 L 100 8.85 Q 100 5.2 97.45 2.65 Z"></path>
</g><mask id="mask">
<path fill="#FFFFFF" stroke="none" d=" M 97.45 2.65 Q 94.8 0 91.15 0 L 8.85 0 Q 5.2 0 2.65 2.65 0 5.2 0 8.85 L 0 91.15 Q 0 94.8 2.65 97.45 5.2 100 8.85 100 L 91.15 100 Q 94.8 100 97.45 97.45 100 94.8 100 91.15 L 100 8.85 Q 100 5.2 97.45 2.65 Z"></path>
</mask>
			
	<linearGradient id="background-gradient" x1="0" y1="0" y2="1" x2="0" gradientTransform="rotate(0 0.5 0.5)">
		<stop stop-color="#ac7ebd" offset="0%"></stop>
		<stop stop-color="#ac7ebd" offset="100%"></stop>
	</linearGradient>

			
			
			
			
		<linearGradient class="shapgradient" gradientTransform="rotate(0 0.5 0.5)" id="SvgjsLinearGradient1015"><stop stop-color="#ffffff" offset="0"></stop><stop stop-color="#ffffff" offset="1"></stop></linearGradient></defs><use xlink:href="#background" fill="url(#background-gradient)" class="background"></use><use xlink:href="#middle-1" class="background"></use><g class="geditable"><g mask="url(#mask)" fill="url(#SvgjsLinearGradient1015)" class="editable"><path d="M426.66666666666663 409.6027994791667L496.66666666666663 409.5897994791667C501.78066666666666 409.5897994791667 506.8976666666666 409.0067994791667 511.8696666666666 407.86079947916676L630.8686666666666 380.43379947916674C661.2266666666667 373.43779947916664 682.6666666666666 346.6227994791667 682.6666666666666 315.87979947916665V110.17779947916668C682.6666666666666 86.33279947916668 669.6366666666667 64.22679947916669 648.6616666666666 52.48779947916668L550.6626666666666 -2.3652005208333264C516.2536666666666 -21.626200520833322 483.3996666666666 -8.189200520833325 458.44466666666665 22.367799479166678L313.51666666666665 -33.389200520833306C275.62966666666665 -47.96820052083331 232.90466666666666 -29.66220052083331 217.87466666666666 7.8117994791666945C202.77666666666664 45.45379947916669 221.50966666666665 88.1817994791667 259.81666666666666 102.92379947916669L338.66666666666663 121.60279947916669L244.66666666666666 112.4617994791667C203.86266666666666 112.4617994791667 170.66666666666666 145.2727994791667 170.66666666666666 185.60179947916671C170.66666666666666 225.9317994791667 203.86266666666666 258.7427994791667 244.66666666666666 258.7427994791667H332.3016666666666C328.62666666666667 284.9877994791667 340.9936666666666 310.03979947916673 362.6426666666666 323.7487994791668C349.32366666666667 366.3397994791667 381.71066666666667 409.6027994791667 426.66666666666663 409.6027994791667ZM426.66666666666663 361.5897994791667C401.50666666666666 361.5897994791667 401.5466666666666 325.0227994791667 426.66666666666663 325.0227994791667C435.5036666666666 325.0227994791667 442.66666666666663 317.85979947916667 442.66666666666663 309.0227994791667V302.1667994791667C442.66666666666663 293.3297994791667 435.5036666666666 286.1667994791667 426.66666666666663 286.1667994791667H398.66666666666663C373.50766666666664 286.1667994791667 373.54466666666667 249.5997994791667 398.66666666666663 249.5997994791667H426.66666666666663C435.5036666666666 249.5997994791667 442.66666666666663 242.4367994791667 442.66666666666663 233.5997994791667V226.7437994791667C442.66666666666663 217.90679947916672 435.5036666666666 210.7437994791667 426.66666666666663 210.7437994791667H244.66666666666666C210.23666666666665 210.7437994791667 210.29166666666666 160.4627994791667 244.66666666666666 160.4627994791667H426.66666666666663C435.5036666666666 160.4627994791667 442.66666666666663 153.2997994791667 442.66666666666663 144.4627994791667V132.8307994791667A16 16 0 0 0 432.4126666666666 117.89779947916671L277.05566666666664 58.11279947916668C245.50366666666665 45.97279947916668 263.6236666666666 -1.170200520833319 296.2776666666666 11.395799479166683L462.8266666666666 75.48679947916668A16.001 16.001 0 0 0 480.9656666666666 70.67479947916667L502.7296666666666 44.027799479166674C508.54966666666667 36.90079947916668 519.0776666666667 34.96379947916668 527.2176666666667 39.51979947916668L625.2176666666667 94.37379947916668C631.0456666666666 97.63679947916668 634.6666666666666 103.69179947916669 634.6666666666666 110.17879947916668V315.87979947916665C634.6666666666666 324.37079947916664 628.6726666666666 331.6837994791666 620.0906666666666 333.6617994791667L501.08966666666663 361.0887994791667A19.743 19.743 0 0 1 496.66666666666663 361.59079947916666H426.66666666666663Z " transform="matrix(0.1171875,0,0,0.1171875,0,28.249690175056458)"></path></g></g></g></svg>